<?xml version="1.0" standalone="no"?>
<!DOCTYPE svg PUBLIC "-//W3C//DTD SVG 1.1//EN" "http://www.w3.org/Graphics/SVG/1.1/DTD/svg11.dtd">
<svg xmlns="http://www.w3.org/2000/svg">
<defs >
<font id="RedHatText" horiz-adv-x="523" ><font-face
    font-family="Red Hat Text"
    units-per-em="1000"
    panose-1="2 1 3 3 4 2 1 13 3 3"
    ascent="1018"
    descent="-305"
    alphabetic="0" />
<glyph unicode=" " horiz-adv-x="215" />
<glyph unicode="!" horiz-adv-x="269" d="M68 227L157 727H310L183 227H68ZM86 -11Q52 -11 30 11T8 68Q8 110 38 140T108 170Q140 170 161 148T183 91Q183 64 170 41T134 4T86 -11Z" />
<glyph unicode="&quot;" horiz-adv-x="509" d="M116 440L165 750H311L227 440H116ZM333 440L382 750H528L444 440H333Z" />
<glyph unicode="#" horiz-adv-x="734" d="M-3 0L98 184H25L49 298H161L218 402H117L142 516H281L382 700H517L416 516H539L640 700H774L673 516H746L721 402H610L553 298H652L628 184H490L389 0H255L356 184H233L132 0H-3ZM296 298H419L476 402H353L296 298Z" />
<glyph unicode="$" horiz-adv-x="582" d="M172 -66L191 22Q84 40 -4 108L84 226Q123 198 155 182T220 158L249 297L202 311Q141 330 107 372T72 471Q72 571 141 628T331 685L349 768H426L407 677Q458 666 505 642T588 581L492 471Q465 497 437 514T378 541L353
422L404 405Q465 385 500 342T536 244Q536 176 502 125T408 45T266 16L249 -66H172ZM279 439L303 552Q263 551 240 535T216 493Q216 477 227 464T260 445L279 439ZM295 151Q325 153 345 161T375 183T386 216Q386 235 374 250T341 272L322 279L295 151Z" />
<glyph unicode="%" horiz-adv-x="819" d="M210 345Q149 345 113 383T77 487Q77 549 101 598T167 677T260 706Q321 706 357 668T393 564Q393 503 369 453T303 374T210 345ZM219 427Q242 427 261 444T291 491T302 556Q302 588 289 606T251 624Q228 624 209 607T178
560T167 495Q167 463 180 445T219 427ZM96 0L634 700H742L203 0H96ZM592 -5Q531 -5 495 33T459 137Q459 199 483 248T549 327T642 356Q703 356 739 318T775 214Q775 153 751 103T685 24T592 -5ZM601 77Q624 77 643 94T673 141T684 206Q684 238 671 256T633 274Q610
274 591 257T560 210T549 145Q549 113 562 95T601 77Z" />
<glyph unicode="&amp;" horiz-adv-x="682" d="M631 97L524 -16Q506 -2 488 14T450 48Q359 -11 251 -11Q179 -11 126 11T43 74T14 172Q14 219 33 259T90 332T181 390Q165 427 159 452T153 502Q153 564 181 611T259 684T375 711Q430 711 471 692T536 637T560 557Q560
502 528 457T433 381L378 354Q396 329 419 302T467 247Q486 273 504 307T540 381L670 347Q644 288 616 241T559 157Q578 140 596 125T631 97ZM297 525Q297 507 302 488T319 447L361 467Q387 481 401 500T416 540Q416 564 401 578T360 593Q332 593 315 574T297 525ZM163
192Q163 156 192 135T270 114Q294 114 316 119T362 137Q331 171 302 208T239 292Q199 270 181 246T163 192Z" />
<glyph unicode="&apos;" horiz-adv-x="286" d="M116 440L165 750H311L227 440H116Z" />
<glyph unicode="(" horiz-adv-x="422" d="M206 -221Q129 -158 89 -67T48 135Q48 259 91 371T214 571T402 711L465 605Q400 572 349 524T262 417T207 291T188 151Q188 -21 309 -130L206 -221Z" />
<glyph unicode=")" horiz-adv-x="421" d="M215 712Q292 649 332 558T373 356Q373 232 330 120T207 -80T19 -220L-44 -114Q21 -81 72 -33T159 74T214 200T233 340Q233 512 112 621L215 712Z" />
<glyph unicode="*" horiz-adv-x="483" d="M204 307L228 415L126 361L92 453L206 509L117 582L185 661L265 592L287 700H382L357 587L463 644L500 554L382 494L467 425L397 344L320 411L300 307H204Z" />
<glyph unicode="+" horiz-adv-x="600" d="M215 123L251 295H86L112 419H278L315 591H434L397 419H562L536 295H370L334 123H215Z" />
<glyph unicode="," horiz-adv-x="250" d="M-98 -177L36 127H191L16 -177H-98Z" />
<glyph unicode="-" horiz-adv-x="460" d="M41 219L69 354H430L402 219H41Z" />
<glyph unicode="." horiz-adv-x="250" d="M77 -11Q43 -11 20 13T-3 72Q-3 101 11 125T48 163T99 178Q132 178 154 154T176 95Q176 67 162 43T126 4T77 -11Z" />
<glyph unicode="/" horiz-adv-x="534" d="M-153 -209L435 700H596L9 -209H-153Z" />
<glyph unicode="0" horiz-adv-x="677" d="M406 711Q484 711 541 677T630 579T662 430Q662 339 635 259T559 118T447 23T309 -11Q231 -11 173 23T84 121T52 271Q52 363 79 443T155 583T268 677T406 711ZM391 575Q352 575 318 552T258 489T218 395T203 282Q203 209
235 167T324 125Q363 125 396 148T456 211T496 305T511 419Q511 492 479 533T391 575Z" />
<glyph unicode="1" horiz-adv-x="378" d="M111 0L225 540L78 483L107 619L316 700H411L262 0H111Z" />
<glyph unicode="2" horiz-adv-x="585" d="M252 0L274 109L617 400Q657 434 672 457T687 505Q687 537 662 556T596 575Q556 575 513 557T419 501L351 613Q408 660 475 684T611 709Q679 709 730 686T809 622T838 526Q838 469 810 422T717 320L488 129L783 130L754 0H252Z" />
<glyph unicode="3" horiz-adv-x="621" d="M533 -10Q447 -10 373 28T260 131L372 216Q409 169 448 148T536 126Q575 126 604 137T649 169T666 216Q666 238 655 252T623 275T571 283H502L529 411H592Q627 411 653 422T695 453T710 500Q710 533 683 553T612 574Q569
574 525 557T440 508L364 614Q415 659 483 684T622 710Q694 710 749 687T835 621T867 525Q867 456 821 407T703 341Q758 325 787 290T816 203Q816 144 779 96T677 19T533 -10Z" />
<glyph unicode="4" horiz-adv-x="706" d="M370 0L403 155H16L44 286L492 700H677L590 290H676L647 155H561L528 0H370ZM231 290H432L481 520L231 290Z" />
<glyph unicode="5" horiz-adv-x="604" d="M264 -9Q182 -9 115 20T0 106L109 205Q148 162 187 143T275 123Q311 123 340 137T385 175T402 229Q402 271 366 299T276 327Q254 327 231 321T180 301L73 343L163 700H619L590 569H275L236 423Q267 435 291 439T338 443Q403
443 452 419T530 351T558 252Q558 197 536 149T474 66T381 11T264 -9Z" />
<glyph unicode="6" horiz-adv-x="639" d="M316 -11Q236 -11 178 24T87 123T55 274Q55 366 84 445T165 584T286 677T434 711Q499 711 556 689T654 625L559 517Q528 547 494 561T422 576Q371 576 326 546T250 461T208 337Q244 382 290 406T387 430Q446 430 492 406T564
340T591 244Q591 192 570 146T510 64T423 9T316 -11ZM327 122Q360 122 386 135T428 172T444 225Q444 263 415 288T341 313Q303 313 268 301T203 263Q205 220 220 188T262 139T327 122Z" />
<glyph unicode="7" horiz-adv-x="606" d="M53 0L465 564H99L129 700H664L638 585L244 0H53Z" />
<glyph unicode="8" horiz-adv-x="626" d="M284 -11Q209 -11 152 12T63 78T31 176Q31 221 52 259T111 326T195 367Q158 387 137 418T116 488Q116 550 152 600T250 681T386 711Q453 711 504 688T584 623T614 528Q614 489 595 454T544 392T469 351Q514 332 541 297T568
215Q568 152 530 101T428 19T284 -11ZM356 411Q385 411 409 424T447 458T462 505Q462 540 437 562T372 584Q343 584 318 571T279 537T264 488Q264 454 290 433T356 411ZM296 118Q346 118 381 146T417 216Q417 241 403 259T365 289T307 300Q257 300 222 272T187
203Q187 178 200 159T238 129T296 118Z" />
<glyph unicode="9" horiz-adv-x="635" d="M349 711Q429 711 487 676T578 578T610 426Q610 335 581 256T500 116T380 23T231 -11Q166 -11 109 11T11 75L106 183Q138 153 171 139T243 124Q295 124 339 154T415 239T457 363Q421 318 375 294T278 270Q220 270 174
294T101 360T74 456Q74 509 95 555T155 636T242 691T349 711ZM338 578Q305 578 279 565T237 528T221 475Q221 438 251 413T324 387Q362 387 397 399T462 437Q461 481 446 512T403 561T338 578Z" />
<glyph unicode=":" horiz-adv-x="250" d="M77 -11Q43 -11 20 13T-3 72Q-3 101 11 125T48 163T99 178Q132 178 154 154T176 95Q176 67 162 43T126 4T77 -11ZM154 337Q120 337 97 361T74 420Q74 449 88 473T125 511T176 526Q209 526 231 502T253 443Q253 415 239
391T203 352T154 337Z" />
<glyph unicode=";" horiz-adv-x="250" d="M156 337Q122 337 99 361T76 420Q76 449 90 473T127 511T178 526Q211 526 233 502T255 443Q255 415 241 391T205 352T156 337ZM151 -177L285 127H440L265 -177H151Z" />
<glyph unicode="&lt;" horiz-adv-x="600" d="M393 43L102 347L524 652L588 555L289 342L493 134L393 43Z" />
<glyph unicode="=" horiz-adv-x="600" d="M319 443L345 567H795L769 443H319ZM106 389L132 513H582L556 389H106Z" />
<glyph unicode="&gt;" horiz-adv-x="600" d="M251 652L542 348L120 43L56 140L355 353L151 561L251 652Z" />
<glyph unicode="?" horiz-adv-x="526" d="M194 -11Q160 -11 138 11T116 68Q116 110 146 140T216 170Q249 170 270 148T292 91Q292 64 279 41T243 4T194 -11ZM168 230Q179 295 202 331T276 399L335 437Q365 456 380 476T396 515Q396 543 375 559T315 575Q277 575
243 555T189 499L78 554Q119 627 188 668T336 710Q399 710 446 689T521 629T548 539Q548 478 511 429T389 329L362 313Q329 295 315 278T295 230H168Z" />
<glyph unicode="@" horiz-adv-x="807" d="M416 -144Q334 -144 266 -118T147 -45T69 67T41 207Q41 288 69 357T148 477T268 556T418 584Q490 584 552 561T660 497T733 400T759 281Q759 211 734 158T665 74T562 44Q484 44 454 85Q432 66 405 56T350 46Q309 46 276
67T224 124T204 203Q204 256 228 298T293 365T385 390Q411 390 433 382T474 360L477 377H589L544 166Q540 145 549 134T580 123Q609 123 631 142T665 194T677 273Q677 343 643 398T550 485T415 517Q352 517 299 494T205 430T143 334T120 215Q120 130 157 66T260
-33T415 -69Q504 -69 576 -36L606 -101Q557 -123 512 -133T416 -144ZM378 137Q410 137 435 158Q435 164 436 170T438 183L454 266Q444 281 428 288T391 295Q369 295 351 284T322 255T311 213Q311 180 330 159T378 137Z" />
<glyph unicode="A" horiz-adv-x="727" d="M-54 0L359 700H551L669 0H495L472 167H221L130 0H-54ZM294 300H453L421 532L294 300Z" />
<glyph unicode="B" horiz-adv-x="715" d="M21 0L170 700H487Q548 700 594 679T665 621T691 534Q691 476 656 428T563 354Q607 333 632 297T657 215Q657 156 623 107T529 29T398 0H21ZM278 419H429Q467 419 492 442T518 501Q518 530 500 546T449 563H309L278 419ZM218
137H393Q421 137 442 148T475 180T488 225Q488 256 468 273T413 291H251L218 137Z" />
<glyph unicode="C" horiz-adv-x="711" d="M395 -10Q325 -10 265 15T159 86T88 192T62 323Q62 403 92 473T174 596T296 679T445 709Q540 709 611 672T725 563L594 457Q569 507 529 532T436 557Q394 557 358 540T295 491T252 420T236 332Q236 278 259 235T324 168T416
143Q460 143 501 163T579 224L672 113Q619 56 545 23T395 -10Z" />
<glyph unicode="D" horiz-adv-x="745" d="M21 0L170 700H412Q500 700 570 659T680 548T721 387Q721 309 691 239T607 115T485 31T337 0H21ZM395 553H307L220 147H353Q392 147 427 164T488 213T529 285T544 373Q544 425 525 465T472 529T395 553Z" />
<glyph unicode="E" horiz-adv-x="657" d="M21 0L170 700H688L656 556H307L279 423H526L496 283H249L220 144H575L543 0H21Z" />
<glyph unicode="F" horiz-adv-x="652" d="M21 0L170 700H692L660 556H307L278 418H525L495 278H248L189 0H21Z" />
<glyph unicode="G" horiz-adv-x="790" d="M386 -11Q316 -11 256 13T152 80T84 183T59 311Q59 392 90 464T176 592T302 679T453 711Q545 711 621 672T738 564L606 458Q582 505 539 531T439 558Q396 558 359 540T294 490T250 414T234 322Q234 269 255 228T315 163T403
140Q440 140 472 154T528 196T565 258H393L425 402H774L759 329Q738 228 684 152T553 32T386 -11Z" />
<glyph unicode="H" horiz-adv-x="748" d="M11 0L160 700H328L270 428H548L606 700H774L625 0H457L516 277H238L179 0H11Z" />
<glyph unicode="I" horiz-adv-x="302" d="M11 0L160 700H328L179 0H11Z" />
<glyph unicode="J" horiz-adv-x="657" d="M292 -9Q177 -9 107 49T24 215L182 267Q187 204 213 173T288 141Q338 141 376 177T428 275L517 700H688L590 244Q574 167 532 110T428 22T292 -9Z" />
<glyph unicode="K" horiz-adv-x="723" d="M21 0L170 700H338L276 407L586 700H801L423 364L657 0H448L258 323L189 0H21Z" />
<glyph unicode="L" horiz-adv-x="637" d="M21 0L170 700H338L220 147H561L529 0H21Z" />
<glyph unicode="M" horiz-adv-x="907" d="M21 0L170 700H376L472 364L706 700H923L774 0H619L719 472L413 50L281 481L180 0H21Z" />
<glyph unicode="N" horiz-adv-x="773" d="M21 0L170 700H329L544 261L630 700H789L640 0H491L270 454L180 0H21Z" />
<glyph unicode="O" horiz-adv-x="797" d="M392 -11Q322 -11 262 14T157 83T88 188T63 320Q63 401 93 471T175 596T297 680T444 711Q515 711 574 686T678 617T747 512T772 380Q772 299 743 229T661 104T539 20T392 -11ZM403 142Q444 142 479 159T542 208T584 280T599
369Q599 424 578 466T519 533T433 558Q392 558 357 541T294 492T252 420T237 331Q237 276 258 234T317 167T403 142Z" />
<glyph unicode="P" horiz-adv-x="696" d="M21 0L170 700H469Q539 700 590 674T670 601T699 489Q699 420 663 365T565 277T425 244H241L189 0H21ZM270 381H411Q446 381 472 393T512 426T527 477Q527 515 502 536T429 558H308L270 381Z" />
<glyph unicode="Q" horiz-adv-x="797" d="M544 -46L511 9Q483 -1 454 -6T392 -11Q322 -11 262 14T157 83T88 188T63 320Q63 401 93 471T175 596T297 680T444 711Q515 711 574 686T678 617T747 512T772 380Q772 287 733 208T628 74L685 -24L544 -46ZM403 142Q411
142 419 143T435 145L376 250L516 272L548 216Q572 246 585 285T599 369Q599 424 578 466T519 533T433 558Q392 558 357 541T294 492T252 420T237 331Q237 276 258 234T317 167T403 142Z" />
<glyph unicode="R" horiz-adv-x="689" d="M21 0L170 700H478Q544 700 593 674T671 603T699 497Q699 444 676 399T613 320T521 271L622 0H444L359 259H244L189 0H21ZM273 394H431Q459 394 480 405T514 437T527 482Q527 517 506 537T448 558H308L273 394Z" />
<glyph unicode="S" horiz-adv-x="642" d="M320 -10Q226 -10 149 21T3 118L105 238Q172 180 225 154T333 128Q365 128 388 137T425 164T438 205Q438 230 421 245T358 273L217 310Q147 330 110 374T73 482Q73 552 106 603T199 682T340 710Q430 710 509 681T642 597L540
479Q494 526 442 548T328 571Q285 571 260 553T234 504Q234 482 251 468T305 443L437 410Q520 389 563 343T606 228Q606 158 570 104T469 20T320 -10Z" />
<glyph unicode="T" horiz-adv-x="652" d="M186 0L304 553H81L114 700H724L691 553H473L355 0H186Z" />
<glyph unicode="U" horiz-adv-x="734" d="M341 -11Q241 -11 174 32T82 154T78 335L156 700H325L243 317Q232 264 241 225T280 164T353 142Q409 142 451 182T508 287L596 700H764L672 270Q654 183 608 120T494 23T341 -11Z" />
<glyph unicode="V" horiz-adv-x="727" d="M213 0L95 700H270L345 179L635 700H818L406 0H213Z" />
<glyph unicode="W" horiz-adv-x="964" d="M127 0L123 700H290L282 265L493 700H651L679 267L854 700H1027L726 0H547L521 452L305 0H127Z" />
<glyph unicode="X" horiz-adv-x="742" d="M-46 0L297 363L119 700H309L417 486L610 700H814L487 354L674 0H484L367 233L157 0H-46Z" />
<glyph unicode="Y" horiz-adv-x="724" d="M221 0L277 265L92 700H271L386 414L620 700H818L446 266L390 0H221Z" />
<glyph unicode="Z" horiz-adv-x="610" d="M-27 0L-2 112L419 559L92 556L124 700H677L652 588L231 141L563 144L531 0H-27Z" />
<glyph unicode="[" horiz-adv-x="414" d="M-35 -215L160 700H457L430 574H276L135 -89H289L262 -215H-35Z" />
<glyph unicode="\" d="M324 -209L124 700H273L473 -209H324Z" />
<glyph unicode="]" horiz-adv-x="414" d="M440 700L245 -215H-52L-25 -89H129L270 574H116L143 700H440Z" />
<glyph unicode="^" horiz-adv-x="600" d="M82 350L331 700H463L562 350H439L374 584L209 350H82Z" />
<glyph unicode="_" horiz-adv-x="463" d="M-98 -191L-74 -80H392L368 -191H-98Z" />
<glyph unicode="`" horiz-adv-x="600" d="M328 601L139 747H333L469 601H328Z" />
<glyph unicode="a" horiz-adv-x="570" d="M177 -4Q104 -4 61 33T18 135Q18 187 43 224T115 281T227 301Q260 301 293 295T358 277L363 302Q373 348 348 370T262 392Q236 392 205 386T131 366L95 480Q156 502 207 512T305 523Q387 523 440 497T515 421T521 303L455
0H298L308 44Q271 18 241 7T177 -4ZM241 100Q264 100 284 105T324 122L340 195Q321 200 297 203T248 206Q207 206 185 191T163 148Q163 126 183 113T241 100Z" />
<glyph unicode="b" horiz-adv-x="631" d="M330 -3Q281 -3 243 19T181 84L163 0H6L158 712L321 737L263 465Q289 491 324 505T397 519Q452 519 495 488T565 403T591 283Q591 224 571 172T515 81T432 19T330 -3ZM305 131Q343 131 372 149T419 199T436 270Q436 321
405 353T327 386Q302 386 281 377T239 349L204 182Q221 159 247 145T305 131Z" />
<glyph unicode="c" horiz-adv-x="528" d="M275 -11Q207 -11 153 19T69 104T38 226Q38 289 60 343T120 439T210 503T321 526Q390 526 446 498T536 416L424 324Q406 356 380 371T318 387Q284 387 257 368T213 315T196 240Q196 206 208 181T244 143T300 129Q329 129
353 139T398 172L476 71Q436 31 384 10T275 -11Z" />
<glyph unicode="d" horiz-adv-x="630" d="M235 -3Q181 -3 137 28T67 113T41 233Q41 292 61 344T117 435T200 497T302 519Q349 519 386 500T448 444L505 712L668 737L512 0H355L365 48Q340 24 307 11T235 -3ZM305 130Q352 130 388 163L426 342Q409 362 383 373T327
385Q290 385 261 367T214 317T197 246Q197 196 227 163T305 130Z" />
<glyph unicode="e" horiz-adv-x="583" d="M290 -11Q217 -11 160 20T71 106T38 233Q38 292 60 344T120 437T210 501T318 524Q385 524 435 495T514 414T543 293Q543 270 542 252T537 217H191Q196 187 211 165T251 130T307 117Q336 117 361 126T404 155L491 57Q442
21 394 5T290 -11ZM201 308H403Q399 336 387 355T355 386T309 397Q285 397 264 386T227 355T201 308Z" />
<glyph unicode="f" horiz-adv-x="451" d="M80 0L160 391H60L88 516H185L202 599Q221 684 276 729T417 774Q445 774 476 770T523 757L495 624Q459 635 427 635Q398 635 381 623T359 584L345 516H478L450 391H319L239 0H80Z" />
<glyph unicode="g" horiz-adv-x="628" d="M253 -219Q189 -219 125 -200T10 -147L78 -36Q165 -94 246 -94Q291 -94 318 -73T354 -11L367 53Q342 28 308 15T236 1Q182 1 138 32T69 116T43 235Q43 294 63 345T118 436T201 497T302 519Q350 519 388 500T451 443L466
516H622L507 -29Q488 -122 423 -170T253 -219ZM306 132Q330 132 351 140T391 166L427 343Q410 363 384 374T327 385Q291 385 262 367T216 319T199 248Q199 197 229 165T306 132Z" />
<glyph unicode="h" horiz-adv-x="606" d="M6 0L155 712L321 737L256 432Q293 476 336 499T429 522Q481 522 515 499T563 434T564 337L492 0H333L397 297Q407 341 388 369T328 397Q304 397 283 387T240 355L165 0H6Z" />
<glyph unicode="i" horiz-adv-x="283" d="M217 596Q183 596 160 618T137 675Q137 702 151 725T188 763T237 777Q271 777 294 754T318 697Q318 656 288 626T217 596ZM6 0L118 516H277L165 0H6Z" />
<glyph unicode="j" horiz-adv-x="283" d="M217 596Q183 596 160 618T137 675Q137 702 151 725T188 763T237 777Q271 777 294 754T318 697Q318 656 288 626T217 596ZM-40 -219Q-63 -219 -90 -215T-132 -204L-106 -82Q-95 -85 -83 -86T-54 -88Q-33 -88 -21 -78T-4
-48L118 516H278L152 -63Q136 -138 86 -178T-40 -219Z" />
<glyph unicode="k" horiz-adv-x="582" d="M6 0L158 712L321 737L227 296L438 516H629L358 255L531 0H343L211 218L165 0H6Z" />
<glyph unicode="l" horiz-adv-x="283" d="M6 0L158 712L321 737L165 0H6Z" />
<glyph unicode="m" horiz-adv-x="895" d="M6 0L118 516H277L256 421Q294 471 335 496T420 522Q471 522 504 493T546 413Q626 522 731 522Q778 522 808 498T851 430T851 332L781 0H622L686 307Q694 347 678 372T626 397Q606 397 587 387T546 351Q546 347 545 342T543
332L473 0H314L378 307Q386 348 370 372T318 397Q282 397 242 356L165 0H6Z" />
<glyph unicode="n" horiz-adv-x="606" d="M6 0L118 516H277L260 436Q296 478 339 500T429 522Q481 522 515 499T563 434T564 337L492 0H333L397 297Q407 341 388 369T328 397Q305 397 284 388T243 358L165 0H6Z" />
<glyph unicode="o" horiz-adv-x="610" d="M282 -10Q213 -10 158 21T72 107T40 231Q40 292 62 345T124 439T216 502T328 525Q398 525 452 494T538 409T570 284Q570 224 548 171T486 77T394 13T282 -10ZM291 127Q327 127 354 147T398 201T414 280Q414 331 388 360T318
390Q284 390 257 370T213 316T196 239Q196 187 222 157T291 127Z" />
<glyph unicode="p" horiz-adv-x="631" d="M-40 -209L118 516H275L265 464Q320 519 397 519Q452 519 495 488T565 403T591 283Q591 224 571 172T515 81T432 19T330 -3Q281 -3 244 17T183 78L119 -209H-40ZM327 386Q280 386 242 352L205 180Q222 158 248 145T305
131Q343 131 372 149T419 199T436 270Q436 321 405 353T327 386Z" />
<glyph unicode="q" horiz-adv-x="630" d="M308 -209L364 47Q339 24 306 11T235 -3Q181 -3 137 28T67 113T41 233Q41 292 61 344T117 435T200 497T302 519Q351 519 389 499T451 438L467 516H624L467 -209H308ZM305 130Q329 130 350 138T390 164L428 340Q410 361
384 373T327 385Q290 385 261 367T214 317T197 246Q197 196 227 163T305 130Z" />
<glyph unicode="r" horiz-adv-x="433" d="M6 0L118 516H277L253 405Q289 466 326 495T404 524Q440 524 466 507L437 369Q427 377 403 383T357 389Q324 389 292 374T237 333L165 0H6Z" />
<glyph unicode="s" horiz-adv-x="505" d="M236 -11Q164 -11 99 11T-9 70L75 173Q128 138 165 123T240 108Q269 108 287 120T305 151Q305 165 296 173T265 187L170 211Q111 228 80 263T48 348Q48 431 103 478T255 525Q317 525 373 506T476 450L391 353Q354 380
317 394T246 408Q218 408 203 399T188 371Q188 357 197 349T232 334L325 310Q387 294 420 260T453 176Q453 123 425 81T347 14T236 -11Z" />
<glyph unicode="t" horiz-adv-x="449" d="M262 -6Q170 -6 131 38T109 168L157 391H59L87 516H183L214 659L380 692L342 516H478L450 391H315L273 193Q265 158 279 143T332 127Q344 127 355 128T391 135L363 5Q344 0 317 -3T262 -6Z" />
<glyph unicode="u" horiz-adv-x="606" d="M177 -6Q126 -6 92 18T44 84T42 179L114 516H273L209 219Q199 175 218 147T278 119Q301 119 322 128T363 158L441 516H600L488 0H329L346 80Q310 38 267 16T177 -6Z" />
<glyph unicode="v" horiz-adv-x="580" d="M156 0L63 516H230L275 189L460 516H629L310 0H156Z" />
<glyph unicode="w" horiz-adv-x="767" d="M96 0L72 516H220L226 208L374 516H505L526 211L659 516H807L562 0H410L393 305L248 0H96Z" />
<glyph unicode="x" horiz-adv-x="578" d="M-46 0L205 266L74 516H251L317 380L438 516H621L377 259L513 0H336L266 144L136 0H-46Z" />
<glyph unicode="y" horiz-adv-x="572" d="M39 -219Q19 -219 -2 -216T-50 -206L-21 -71Q-8 -74 5 -75T28 -77Q63 -77 85 -67T120 -31L132 -9L58 516H222L255 169L451 516H624L271 -72Q226 -147 170 -183T39 -219Z" />
<glyph unicode="z" horiz-adv-x="500" d="M-20 0L4 113L281 382L65 380L93 516H512L488 403L210 133L437 135L408 0H-20Z" />
<glyph unicode="{" horiz-adv-x="447" d="M208 -220Q137 -220 96 -190T49 -109T80 1L127 78Q145 107 145 131T131 171T87 186H7L32 304H112Q154 304 177 333T196 407L184 509Q177 567 199 612T266 684T372 711Q406 711 433 706T485 688L440 574Q428 580 411 584T382
589Q347 589 328 565T312 502L323 396Q327 357 312 324T266 269T194 240Q256 224 275 177T261 74L214 -7Q190 -47 201 -73T253 -100Q264 -100 276 -98T299 -92L296 -208Q274 -214 253 -217T208 -220Z" />
<glyph unicode="|" horiz-adv-x="351" d="M4 -209L198 700H339L145 -209H4Z" />
<glyph unicode="}" horiz-adv-x="447" d="M230 707Q301 707 342 677T389 596T358 486L311 409Q293 380 293 356T307 316T351 301H431L406 183H326Q284 183 261 154T242 80L254 -22Q261 -80 239 -125T172 -197T66 -224Q32 -224 6 -219T-47 -201L-2 -87Q10 -93 27
-97T56 -102Q91 -102 110 -78T126 -15L115 91Q111 133 129 167T181 224T262 249L261 243Q213 252 186 277T156 337T177 413L224 494Q248 535 237 561T185 587Q174 587 162 585T139 579L142 695Q164 701 185 704T230 707Z" />
<glyph unicode="~" horiz-adv-x="600" d="M150 291L47 314Q73 394 114 436T208 478Q231 478 257 470T309 446L379 403Q397 392 411 387T436 381Q457 381 472 397T501 449L605 425Q579 346 537 304T442 261Q420 261 393 269T342 293L272 336Q253 348 240 353T215
358Q194 358 178 342T150 291Z" />
<glyph unicode="&#xa0;" horiz-adv-x="215" />
<glyph unicode="&#xa1;" horiz-adv-x="268" d="M193 264L104 -236H-49L78 264H193ZM175 502Q209 502 231 480T253 423Q253 381 224 351T153 321Q121 321 100 343T78 400Q78 427 91 450T127 488T175 502Z" />
<glyph unicode="&#xa2;" horiz-adv-x="529" d="M190 -110L213 -4Q135 16 87 78T38 226Q38 289 60 343T121 439T213 503T325 526L346 625H413L390 518Q437 507 474 481T536 416L424 324Q412 346 397 359T361 380L308 129Q334 131 356 141T398 172L476 71Q436 31
385 10T278 -11L257 -110H190ZM244 143L295 384Q267 378 245 358T209 307T196 240Q196 206 208 182T244 143Z" />
<glyph unicode="&#xa3;" horiz-adv-x="656" d="M81 -23L-23 63Q49 159 140 166Q161 187 161 218V275H64L86 377H160V444Q160 520 192 580T283 676T415 711Q519 711 582 661T664 513L524 476Q515 529 488 554T412 580Q363 580 335 546T308 454L309 377H474L452
275H310V265Q311 189 261 146Q264 145 266 144T272 142L377 103Q414 89 444 100T505 149L607 70Q568 20 527 -6T438 -34T333 -17L211 28Q174 41 143 29T81 -23Z" />
<glyph unicode="&#xa4;" horiz-adv-x="688" d="M97 37L20 114L115 210Q93 242 80 281T67 364Q67 408 80 447T115 518L19 616L96 693L195 593Q227 613 265 623T344 634Q386 634 424 623T494 592L593 691L668 616L572 519Q595 487 608 448T621 364Q621 321 608 281T572
209L669 112L594 37L494 136Q462 116 424 105T344 94Q303 94 265 105T195 135L97 37ZM344 229Q380 229 409 247T456 295T473 364Q473 402 456 432T410 481T344 499Q308 499 279 481T233 433T215 364Q215 326 232 296T279 247T344 229Z" />
<glyph unicode="&#xa5;" horiz-adv-x="724" d="M221 0L248 130H93L110 211H266L277 264H122L139 345H243L92 700H271L386 414L620 700H818L514 345H618L601 264H446L434 211H589L572 130H417L390 0H221Z" />
<glyph unicode="&#xa6;" horiz-adv-x="351" d="M109 288L198 700H339L250 288H109ZM4 -209L92 203H233L145 -209H4Z" />
<glyph unicode="&#xa7;" horiz-adv-x="573" d="M243 -51Q184 -51 129 -30T28 31L105 118Q182 52 245 52Q268 52 284 65T300 98Q300 122 266 142L174 191Q113 224 87 256T60 331Q60 387 92 427T180 484Q166 512 166 546Q166 594 191 631T260 689T360 711Q419 711
474 690T575 629L497 542Q461 574 425 591T358 608Q335 608 319 595T303 562Q303 536 337 518L429 469Q492 435 518 404T545 330Q545 273 513 233T424 176Q439 149 439 114Q439 67 414 30T344 -29T243 -51ZM350 243Q379 245 397 262T416 304Q416 334 372 358L253
417Q224 416 206 399T187 356Q187 326 231 302L350 243Z" />
<glyph unicode="&#xa8;" horiz-adv-x="600" d="M263 602Q233 602 213 622T193 674Q193 712 220 739T283 766Q312 766 331 746T351 694Q351 657 325 630T263 602ZM489 602Q460 602 440 622T419 674Q419 711 446 738T509 766Q538 766 557 746T577 694Q577 657 551
630T489 602Z" />
<glyph unicode="&#xa9;" horiz-adv-x="787" d="M390 159Q341 159 303 181T243 240T221 326Q221 389 252 438T335 516T445 545Q492 545 532 524T597 462L506 387Q490 411 474 421T435 432Q412 432 392 419T360 383T348 334Q348 306 366 288T412 269Q448 269 486
304L542 219Q512 191 473 175T390 159ZM368 -11Q301 -11 245 12T146 78T81 178T57 303Q57 386 88 460T174 591T300 680T452 713Q519 713 576 690T675 623T740 523T764 398Q764 315 733 241T646 111T520 22T368 -11ZM377 63Q438 63 493 89T591 161T659 265T684 389Q684
461 653 517T568 605T444 638Q383 638 328 612T230 540T162 436T137 313Q137 241 168 185T254 96T377 63Z" />
<glyph unicode="&#xaa;" horiz-adv-x="441" d="M193 302Q133 302 98 332T63 413Q63 475 108 510T233 545Q282 545 333 528L335 539Q342 574 323 590T260 607Q241 607 215 602T151 583L121 677Q167 694 209 702T289 711Q385 711 430 665T458 539L408 306H285L290
330Q242 302 193 302ZM243 389Q275 389 306 403L317 453Q279 464 246 464Q215 464 198 454T181 423Q181 407 197 398T243 389Z" />
<glyph unicode="&#xab;" horiz-adv-x="746" d="M201 0L28 258L313 516H468L188 257L354 0H201ZM491 0L318 258L603 516H758L478 257L644 0H491Z" />
<glyph unicode="&#xac;" horiz-adv-x="600" d="M317 0L364 219H39L67 354H554L479 0H317Z" />
<glyph unicode="&#xad;" horiz-adv-x="473" d="M41 219L69 354H430L402 219H41Z" />
<glyph unicode="&#xae;" horiz-adv-x="488" d="M280 304Q229 304 190 327T127 393T104 488Q104 535 121 577T170 652T241 703T325 722Q376 722 415 698T477 633T500 538Q500 492 483 450T434 375T364 323T280 304ZM284 353Q330 353 367 378T426 445T449 538Q449
599 414 636T319 673Q273 673 236 648T177 582T155 488Q155 427 190 390T284 353ZM212 420L252 608H329Q354 608 368 594T382 555Q382 536 372 519T343 493L364 420H313L294 485H275L261 420H212ZM283 522H308Q319 522 326 529T333 548Q333 568 314 568H292L283
522Z" />
<glyph unicode="&#xaf;" horiz-adv-x="600" d="M219 626L241 726H563L541 626H219Z" />
<glyph unicode="&#xb0;" horiz-adv-x="407" d="M266 416Q227 416 197 433T150 479T132 546Q132 590 154 627T214 687T294 710Q333 710 363 694T411 648T429 580Q429 536 407 499T347 439T266 416ZM271 496Q292 496 309 506T336 533T346 570Q346 595 330 612T288
629Q268 629 252 619T225 593T215 556Q215 531 232 514T271 496Z" />
<glyph unicode="&#xb1;" horiz-adv-x="600" d="M23 -1L49 123H499L473 -1H23ZM233 209L265 358H99L125 481H291L323 629H442L410 481H575L549 358H384L352 209H233Z" />
<glyph unicode="&#xb2;" horiz-adv-x="307" d="M51 350L65 416L227 548Q244 561 253 573T263 595Q263 609 251 616T219 624Q201 624 181 616T136 587L100 653Q167 706 235 706Q288 706 321 681T355 615Q355 588 340 563T292 512L189 428H324L307 350H51Z" />
<glyph unicode="&#xb3;" horiz-adv-x="329" d="M196 345Q150 345 114 361T57 407L120 466Q153 427 203 427Q224 427 238 435T253 456Q253 470 245 477T220 484H179L195 559H225Q248 559 261 567T275 589Q275 604 263 614T232 624Q215 624 195 617T151 592L106
657Q172 707 246 707Q302 707 337 679T372 607Q372 579 349 556T291 522Q317 514 330 498T344 458Q344 427 324 401T271 360T196 345Z" />
<glyph unicode="&#xb4;" horiz-adv-x="600" d="M284 601L451 747H645L428 601H284Z" />
<glyph unicode="&#xb5;" horiz-adv-x="608" d="M-39 -211L116 516H275L211 219Q201 175 220 147T280 119Q303 119 324 128T365 158L443 516H602L490 0H331L348 80Q322 37 284 16T199 -6Q191 -6 183 -5T167 -3L123 -211H-39Z" />
<glyph unicode="&#xb6;" horiz-adv-x="706" d="M252 0L303 238H301Q235 238 186 263T110 333T82 437Q82 513 117 572T212 666T351 700H725L576 0H455L506 238H425L374 0H252ZM451 365H533L576 570H495L451 365ZM308 365H329L373 570H329Q296 570 270 555T229 515T214
456Q214 414 239 390T308 365Z" />
<glyph unicode="&#xb7;" horiz-adv-x="250" d="M121 194Q87 194 64 218T41 277Q41 306 55 330T92 368T143 383Q176 383 198 359T220 300Q220 272 206 248T170 209T121 194Z" />
<glyph unicode="&#xb8;" horiz-adv-x="600" d="M210 -253Q165 -253 132 -242T76 -205L131 -150Q161 -182 208 -182Q232 -182 246 -172T261 -144Q261 -128 247 -119T210 -109H169L216 0H289L263 -59Q304 -64 326 -84T348 -136Q348 -168 330 -195T280 -237T210 -253Z" />
<glyph unicode="&#xb9;" horiz-adv-x="203" d="M112 350L166 604L87 574L105 655L221 700H279L204 350H112Z" />
<glyph unicode="&#xba;" horiz-adv-x="483" d="M280 297Q223 297 178 322T106 391T79 489Q79 550 109 600T191 680T306 710Q363 710 408 685T479 617T506 518Q506 458 475 408T393 327T280 297ZM286 406Q313 406 335 420T371 459T384 513Q384 551 361 576T299
601Q272 601 250 587T215 548T201 495Q201 456 225 431T286 406Z" />
<glyph unicode="&#xbb;" horiz-adv-x="746" d="M545 516L718 258L433 0H278L558 259L392 516H545ZM255 516L428 258L143 0H-12L268 259L102 516H255Z" />
<glyph unicode="&#xbc;" horiz-adv-x="690" d="M477 0L493 73H310L327 150L535 350H643L600 147H642L625 73H584L569 0H477ZM417 147H508L532 259L417 147ZM112 350L166 604L87 574L105 655L221 700H279L204 350H112ZM7 0L545 700H653L114 0H7Z" />
<glyph unicode="&#xbd;" horiz-adv-x="715" d="M112 350L166 604L87 574L105 655L221 700H279L204 350H112ZM7 0L545 700H653L114 0H7ZM379 0L393 66L555 198Q572 211 581 223T591 245Q591 259 579 266T547 274Q529 274 509 266T464 237L428 303Q495 356 563 356Q616
356 649 331T683 265Q683 238 668 213T620 162L517 78H652L635 0H379Z" />
<glyph unicode="&#xbe;" horiz-adv-x="783" d="M196 345Q150 345 114 361T57 407L120 466Q153 427 203 427Q224 427 238 435T253 456Q253 470 245 477T220 484H179L195 559H225Q248 559 261 567T275 589Q275 604 263 614T232 624Q215 624 195 617T151 592L106
657Q172 707 246 707Q302 707 337 679T372 607Q372 579 349 556T291 522Q317 514 330 498T344 458Q344 427 324 401T271 360T196 345ZM570 0L586 73H403L420 150L628 350H736L693 147H735L718 73H677L662 0H570ZM510 147H601L625 259L510 147ZM100 0L638 700H746L207
0H100Z" />
<glyph unicode="&#xbf;" horiz-adv-x="526" d="M338 502Q372 502 394 480T416 423Q416 381 387 351T316 321Q283 321 262 343T240 400Q240 427 253 450T289 488T338 502ZM364 261Q353 197 330 160T256 92L197 54Q167 35 152 16T136 -24Q136 -52 158 -68T217 -84Q255
-84 289 -63T343 -8L454 -63Q414 -136 345 -177T196 -219Q134 -219 86 -198T11 -137T-16 -48Q-16 14 21 63T143 162L170 178Q203 196 217 213T237 261H364Z" />
<glyph unicode="&#xc0;" horiz-adv-x="727" d="M-54 0L359 700H551L669 0H495L472 167H221L130 0H-54ZM294 300H453L421 532L294 300ZM416 785L227 931H421L557 785H416Z" />
<glyph unicode="&#xc1;" horiz-adv-x="727" d="M-54 0L359 700H551L669 0H495L472 167H221L130 0H-54ZM294 300H453L421 532L294 300ZM372 785L539 931H733L516 785H372Z" />
<glyph unicode="&#xc2;" horiz-adv-x="727" d="M-54 0L359 700H551L669 0H495L472 167H221L130 0H-54ZM294 300H453L421 532L294 300ZM261 783L417 934H570L665 783H548L484 866L388 783H261Z" />
<glyph unicode="&#xc3;" horiz-adv-x="727" d="M-54 0L359 700H551L669 0H495L472 167H221L130 0H-54ZM294 300H453L421 532L294 300ZM348 778L266 809Q296 878 330 911T404 944Q429 944 451 933T492 908T529 883T560 872Q571 872 580 885T609 939L692 909Q662
841 629 808T558 774Q532 774 510 785T470 810T435 835T403 846Q389 846 377 831T348 778Z" />
<glyph unicode="&#xc4;" horiz-adv-x="727" d="M-54 0L359 700H551L669 0H495L472 167H221L130 0H-54ZM294 300H453L421 532L294 300ZM351 786Q321 786 301 806T281 858Q281 896 308 923T371 950Q400 950 419 930T439 878Q439 841 413 814T351 786ZM577 786Q548
786 528 806T507 858Q507 895 534 922T597 950Q626 950 645 930T665 878Q665 841 639 814T577 786Z" />
<glyph unicode="&#xc5;" horiz-adv-x="727" d="M-54 0L359 700H551L669 0H495L472 167H221L130 0H-54ZM294 300H453L421 532L294 300ZM467 771Q418 771 386 802T353 881Q353 917 372 948T423 999T490 1018Q540 1018 572 987T604 908Q604 872 585 841T535 791T467
771ZM472 835Q499 835 518 854T537 901Q537 924 523 939T485 954Q458 954 439 935T420 888Q420 865 435 850T472 835Z" />
<glyph unicode="&#xc6;" horiz-adv-x="967" d="M-54 0L361 700H1002L971 551H592L606 425H829L798 281H622L636 149H885L854 0H484L466 167H216L119 0H-54ZM293 300H452L428 532L293 300Z" />
<glyph unicode="&#xc7;" horiz-adv-x="711" d="M325 -253Q280 -253 247 -242T191 -205L246 -150Q276 -182 323 -182Q347 -182 361 -172T376 -144Q376 -128 362 -119T325 -109H284L329 -4Q252 11 192 57T97 172T62 323Q62 403 92 473T174 596T296 679T445 709Q540
709 611 672T725 563L594 457Q569 507 529 532T436 557Q394 557 358 540T295 491T252 420T236 332Q236 278 259 235T324 168T416 143Q460 143 501 163T579 224L672 113Q619 56 545 23T400 -10L378 -59Q419 -64 441 -84T463 -136Q463 -168 445 -195T395 -237T325
-253Z" />
<glyph unicode="&#xc8;" horiz-adv-x="657" d="M21 0L170 700H688L656 556H307L279 423H526L496 283H249L220 144H575L543 0H21ZM394 785L205 931H399L535 785H394Z" />
<glyph unicode="&#xc9;" horiz-adv-x="657" d="M21 0L170 700H688L656 556H307L279 423H526L496 283H249L220 144H575L543 0H21ZM350 785L517 931H711L494 785H350Z" />
<glyph unicode="&#xca;" horiz-adv-x="657" d="M21 0L170 700H688L656 556H307L279 423H526L496 283H249L220 144H575L543 0H21ZM239 783L395 934H548L643 783H526L462 866L366 783H239Z" />
<glyph unicode="&#xcb;" horiz-adv-x="657" d="M21 0L170 700H688L656 556H307L279 423H526L496 283H249L220 144H575L543 0H21ZM329 786Q299 786 279 806T259 858Q259 896 286 923T349 950Q378 950 397 930T417 878Q417 841 391 814T329 786ZM555 786Q526 786
506 806T485 858Q485 895 512 922T575 950Q604 950 623 930T643 878Q643 841 617 814T555 786Z" />
<glyph unicode="&#xcc;" horiz-adv-x="302" d="M11 0L160 700H328L179 0H11ZM213 785L24 931H218L354 785H213Z" />
<glyph unicode="&#xcd;" horiz-adv-x="302" d="M11 0L160 700H328L179 0H11ZM169 785L336 931H530L313 785H169Z" />
<glyph unicode="&#xce;" horiz-adv-x="302" d="M11 0L160 700H328L179 0H11ZM58 783L214 934H367L462 783H345L281 866L185 783H58Z" />
<glyph unicode="&#xcf;" horiz-adv-x="302" d="M11 0L160 700H328L179 0H11ZM148 786Q118 786 98 806T78 858Q78 896 105 923T168 950Q197 950 216 930T236 878Q236 841 210 814T148 786ZM374 786Q345 786 325 806T304 858Q304 895 331 922T394 950Q423 950 442
930T462 878Q462 841 436 814T374 786Z" />
<glyph unicode="&#xd0;" horiz-adv-x="760" d="M36 0L98 293H20L45 413H124L185 700H427Q515 700 585 659T695 548T736 387Q736 309 706 239T622 115T500 31T352 0H36ZM235 147H368Q407 147 442 164T503 213T544 285T559 373Q559 425 540 465T487 529T410 553H322L292
413H438L413 293H266L235 147Z" />
<glyph unicode="&#xd1;" horiz-adv-x="773" d="M21 0L170 700H329L544 261L630 700H789L640 0H491L270 454L180 0H21ZM373 778L291 809Q321 878 355 911T429 944Q454 944 476 933T517 908T554 883T585 872Q596 872 605 885T634 939L717 909Q687 841 654 808T583
774Q557 774 535 785T495 810T460 835T428 846Q414 846 402 831T373 778Z" />
<glyph unicode="&#xd2;" horiz-adv-x="797" d="M392 -11Q322 -11 262 14T157 83T88 188T63 320Q63 401 93 471T175 596T297 680T444 711Q515 711 574 686T678 617T747 512T772 380Q772 299 743 229T661 104T539 20T392 -11ZM403 142Q444 142 479 159T542 208T584
280T599 369Q599 424 578 466T519 533T433 558Q392 558 357 541T294 492T252 420T237 331Q237 276 258 234T317 167T403 142ZM429 785L240 931H434L570 785H429Z" />
<glyph unicode="&#xd3;" horiz-adv-x="797" d="M392 -11Q322 -11 262 14T157 83T88 188T63 320Q63 401 93 471T175 596T297 680T444 711Q515 711 574 686T678 617T747 512T772 380Q772 299 743 229T661 104T539 20T392 -11ZM403 142Q444 142 479 159T542 208T584
280T599 369Q599 424 578 466T519 533T433 558Q392 558 357 541T294 492T252 420T237 331Q237 276 258 234T317 167T403 142ZM385 785L552 931H746L529 785H385Z" />
<glyph unicode="&#xd4;" horiz-adv-x="797" d="M392 -11Q322 -11 262 14T157 83T88 188T63 320Q63 401 93 471T175 596T297 680T444 711Q515 711 574 686T678 617T747 512T772 380Q772 299 743 229T661 104T539 20T392 -11ZM403 142Q444 142 479 159T542 208T584
280T599 369Q599 424 578 466T519 533T433 558Q392 558 357 541T294 492T252 420T237 331Q237 276 258 234T317 167T403 142ZM274 783L430 934H583L678 783H561L497 866L401 783H274Z" />
<glyph unicode="&#xd5;" horiz-adv-x="797" d="M392 -11Q322 -11 262 14T157 83T88 188T63 320Q63 401 93 471T175 596T297 680T444 711Q515 711 574 686T678 617T747 512T772 380Q772 299 743 229T661 104T539 20T392 -11ZM403 142Q444 142 479 159T542 208T584
280T599 369Q599 424 578 466T519 533T433 558Q392 558 357 541T294 492T252 420T237 331Q237 276 258 234T317 167T403 142ZM361 778L279 809Q309 878 343 911T417 944Q442 944 464 933T505 908T542 883T573 872Q584 872 593 885T622 939L705 909Q675 841 642
808T571 774Q545 774 523 785T483 810T448 835T416 846Q402 846 390 831T361 778Z" />
<glyph unicode="&#xd6;" horiz-adv-x="797" d="M392 -11Q322 -11 262 14T157 83T88 188T63 320Q63 401 93 471T175 596T297 680T444 711Q515 711 574 686T678 617T747 512T772 380Q772 299 743 229T661 104T539 20T392 -11ZM403 142Q444 142 479 159T542 208T584
280T599 369Q599 424 578 466T519 533T433 558Q392 558 357 541T294 492T252 420T237 331Q237 276 258 234T317 167T403 142ZM364 786Q334 786 314 806T294 858Q294 896 321 923T384 950Q413 950 432 930T452 878Q452 841 426 814T364 786ZM590 786Q561 786 541
806T520 858Q520 895 547 922T610 950Q639 950 658 930T678 878Q678 841 652 814T590 786Z" />
<glyph unicode="&#xd7;" horiz-adv-x="600" d="M135 133L79 208L252 358L143 509L233 586L341 436L513 585L568 510L396 360L505 209L416 132L307 283L135 133Z" />
<glyph unicode="&#xd8;" horiz-adv-x="799" d="M392 -11Q333 -11 281 7T187 57L128 0H-17L119 130Q92 170 78 218T63 320Q63 401 93 471T175 596T297 680T444 711Q505 711 557 693T652 641L714 700H860L719 566Q745 526 758 480T772 380Q772 299 743 229T661 104T539
20T392 -11ZM249 255L531 525Q511 541 486 549T433 558Q392 558 357 541T294 492T252 420T237 331Q237 290 249 255ZM403 142Q444 142 479 159T542 208T584 280T599 369Q599 389 596 406T588 440L309 173Q329 158 352 150T403 142Z" />
<glyph unicode="&#xd9;" horiz-adv-x="734" d="M341 -11Q241 -11 174 32T82 154T78 335L156 700H325L243 317Q232 264 241 225T280 164T353 142Q409 142 451 182T508 287L596 700H764L672 270Q654 183 608 120T494 23T341 -11ZM416 785L227 931H421L557 785H416Z" />
<glyph unicode="&#xda;" horiz-adv-x="734" d="M341 -11Q241 -11 174 32T82 154T78 335L156 700H325L243 317Q232 264 241 225T280 164T353 142Q409 142 451 182T508 287L596 700H764L672 270Q654 183 608 120T494 23T341 -11ZM372 785L539 931H733L516 785H372Z" />
<glyph unicode="&#xdb;" horiz-adv-x="734" d="M341 -11Q241 -11 174 32T82 154T78 335L156 700H325L243 317Q232 264 241 225T280 164T353 142Q409 142 451 182T508 287L596 700H764L672 270Q654 183 608 120T494 23T341 -11ZM261 783L417 934H570L665 783H548L484
866L388 783H261Z" />
<glyph unicode="&#xdc;" horiz-adv-x="734" d="M341 -11Q241 -11 174 32T82 154T78 335L156 700H325L243 317Q232 264 241 225T280 164T353 142Q409 142 451 182T508 287L596 700H764L672 270Q654 183 608 120T494 23T341 -11ZM351 786Q321 786 301 806T281 858Q281
896 308 923T371 950Q400 950 419 930T439 878Q439 841 413 814T351 786ZM577 786Q548 786 528 806T507 858Q507 895 534 922T597 950Q626 950 645 930T665 878Q665 841 639 814T577 786Z" />
<glyph unicode="&#xdd;" horiz-adv-x="724" d="M221 0L277 265L92 700H271L386 414L620 700H818L446 266L390 0H221ZM365 785L532 931H726L509 785H365Z" />
<glyph unicode="&#xde;" horiz-adv-x="665" d="M22 0L171 700H339L313 579H420Q487 579 537 554T614 482T642 373Q642 301 608 245T513 156T376 123H216L190 0H22ZM245 260H360Q394 260 418 272T456 307T470 361Q470 397 446 417T378 437H283L245 260Z" />
<glyph unicode="&#xdf;" horiz-adv-x="669" d="M432 -13Q368 -13 313 10T222 76L305 168Q331 138 364 121T428 103Q455 103 470 113T486 143Q486 156 476 166T440 190L376 224Q301 264 301 330Q301 360 313 381T344 419T385 448T426 474T458 502T470 537Q470 557
461 571T432 594T382 603Q342 603 310 577T267 503L161 0H0L113 533Q133 625 202 681T383 737Q450 737 503 713T588 648T619 554Q619 516 607 490T577 446T537 416T497 395T466 375T454 352Q454 343 460 336T478 323L537 293Q584 270 606 237T629 163Q629 111 604
72T535 10T432 -13Z" />
<glyph unicode="&#xe0;" horiz-adv-x="570" d="M177 -4Q104 -4 61 33T18 135Q18 187 43 224T115 281T227 301Q260 301 293 295T358 277L363 302Q373 348 348 370T262 392Q236 392 205 386T131 366L95 480Q156 502 207 512T305 523Q387 523 440 497T515 421T521
303L455 0H298L308 44Q271 18 241 7T177 -4ZM241 100Q264 100 284 105T324 122L340 195Q321 200 297 203T248 206Q207 206 185 191T163 148Q163 126 183 113T241 100ZM539 601L350 747H544L680 601H539Z" />
<glyph unicode="&#xe1;" horiz-adv-x="570" d="M177 -4Q104 -4 61 33T18 135Q18 187 43 224T115 281T227 301Q260 301 293 295T358 277L363 302Q373 348 348 370T262 392Q236 392 205 386T131 366L95 480Q156 502 207 512T305 523Q387 523 440 497T515 421T521
303L455 0H298L308 44Q271 18 241 7T177 -4ZM241 100Q264 100 284 105T324 122L340 195Q321 200 297 203T248 206Q207 206 185 191T163 148Q163 126 183 113T241 100ZM495 601L662 747H856L639 601H495Z" />
<glyph unicode="&#xe2;" horiz-adv-x="570" d="M177 -4Q104 -4 61 33T18 135Q18 187 43 224T115 281T227 301Q260 301 293 295T358 277L363 302Q373 348 348 370T262 392Q236 392 205 386T131 366L95 480Q156 502 207 512T305 523Q387 523 440 497T515 421T521
303L455 0H298L308 44Q271 18 241 7T177 -4ZM241 100Q264 100 284 105T324 122L340 195Q321 200 297 203T248 206Q207 206 185 191T163 148Q163 126 183 113T241 100ZM384 599L540 750H693L788 599H671L607 682L511 599H384Z" />
<glyph unicode="&#xe3;" horiz-adv-x="570" d="M177 -4Q104 -4 61 33T18 135Q18 187 43 224T115 281T227 301Q260 301 293 295T358 277L363 302Q373 348 348 370T262 392Q236 392 205 386T131 366L95 480Q156 502 207 512T305 523Q387 523 440 497T515 421T521
303L455 0H298L308 44Q271 18 241 7T177 -4ZM241 100Q264 100 284 105T324 122L340 195Q321 200 297 203T248 206Q207 206 185 191T163 148Q163 126 183 113T241 100ZM471 594L389 625Q419 694 453 727T527 760Q552 760 574 749T615 724T652 699T683 688Q694 688
703 701T732 755L815 725Q785 657 752 624T681 590Q655 590 633 601T593 626T558 651T526 662Q512 662 500 647T471 594Z" />
<glyph unicode="&#xe4;" horiz-adv-x="570" d="M177 -4Q104 -4 61 33T18 135Q18 187 43 224T115 281T227 301Q260 301 293 295T358 277L363 302Q373 348 348 370T262 392Q236 392 205 386T131 366L95 480Q156 502 207 512T305 523Q387 523 440 497T515 421T521
303L455 0H298L308 44Q271 18 241 7T177 -4ZM241 100Q264 100 284 105T324 122L340 195Q321 200 297 203T248 206Q207 206 185 191T163 148Q163 126 183 113T241 100ZM474 602Q444 602 424 622T404 674Q404 712 431 739T494 766Q523 766 542 746T562 694Q562 657
536 630T474 602ZM700 602Q671 602 651 622T630 674Q630 711 657 738T720 766Q749 766 768 746T788 694Q788 657 762 630T700 602Z" />
<glyph unicode="&#xe5;" horiz-adv-x="570" d="M177 -4Q104 -4 61 33T18 135Q18 187 43 224T115 281T227 301Q260 301 293 295T358 277L363 302Q373 348 348 370T262 392Q236 392 205 386T131 366L95 480Q156 502 207 512T305 523Q387 523 440 497T515 421T521
303L455 0H298L308 44Q271 18 241 7T177 -4ZM241 100Q264 100 284 105T324 122L340 195Q321 200 297 203T248 206Q207 206 185 191T163 148Q163 126 183 113T241 100ZM590 587Q541 587 509 618T476 697Q476 733 495 764T546 815T613 834Q663 834 695 803T727 724Q727
688 708 657T658 607T590 587ZM595 651Q622 651 641 670T660 717Q660 740 646 755T608 770Q581 770 562 751T543 704Q543 681 558 666T595 651Z" />
<glyph unicode="&#xe6;" horiz-adv-x="886" d="M196 -5Q120 -5 74 33T27 135Q27 186 52 223T123 281T232 301Q292 301 346 284L352 306Q364 350 336 371T251 392Q226 392 196 386T123 366L87 480Q151 503 202 513T299 523Q352 523 390 508T453 464Q488 492 531
508T621 525Q688 525 738 496T817 414T846 293Q846 270 845 252T840 217H494Q499 187 514 165T554 131T610 118Q639 118 664 127T707 156L794 58Q745 22 697 6T593 -10Q533 -10 484 11T401 70Q351 30 303 13T196 -5ZM504 308H706Q702 336 690 356T658 387T612 398Q588
398 567 387T530 355T504 308ZM246 100Q275 100 304 110T359 137Q348 165 345 195Q303 206 253 206Q212 206 190 191T168 148Q168 126 188 113T246 100Z" />
<glyph unicode="&#xe7;" horiz-adv-x="528" d="M235 -253Q190 -253 157 -242T101 -205L156 -150Q186 -182 233 -182Q257 -182 271 -172T286 -144Q286 -128 272 -119T235 -109H194L237 -8Q179 0 134 32T64 114T38 225Q38 288 60 342T120 438T210 502T321 525Q390
525 446 497T536 415L424 323Q406 355 380 370T318 386Q284 386 257 367T213 314T196 239Q196 205 208 181T244 143T300 129Q329 129 353 139T398 172L476 71Q442 37 400 17T310 -9L288 -59Q329 -64 351 -84T373 -136Q373 -168 355 -195T305 -237T235 -253Z" />
<glyph unicode="&#xe8;" horiz-adv-x="583" d="M290 -11Q217 -11 160 20T71 106T38 233Q38 292 60 344T120 437T210 501T318 524Q385 524 435 495T514 414T543 293Q543 270 542 252T537 217H191Q196 187 211 165T251 130T307 117Q336 117 361 126T404 155L491
57Q442 21 394 5T290 -11ZM201 308H403Q399 336 387 355T355 386T309 397Q285 397 264 386T227 355T201 308ZM554 601L365 747H559L695 601H554Z" />
<glyph unicode="&#xe9;" horiz-adv-x="583" d="M290 -11Q217 -11 160 20T71 106T38 233Q38 292 60 344T120 437T210 501T318 524Q385 524 435 495T514 414T543 293Q543 270 542 252T537 217H191Q196 187 211 165T251 130T307 117Q336 117 361 126T404 155L491
57Q442 21 394 5T290 -11ZM201 308H403Q399 336 387 355T355 386T309 397Q285 397 264 386T227 355T201 308ZM510 601L677 747H871L654 601H510Z" />
<glyph unicode="&#xea;" horiz-adv-x="583" d="M290 -11Q217 -11 160 20T71 106T38 233Q38 292 60 344T120 437T210 501T318 524Q385 524 435 495T514 414T543 293Q543 270 542 252T537 217H191Q196 187 211 165T251 130T307 117Q336 117 361 126T404 155L491
57Q442 21 394 5T290 -11ZM201 308H403Q399 336 387 355T355 386T309 397Q285 397 264 386T227 355T201 308ZM399 599L555 750H708L803 599H686L622 682L526 599H399Z" />
<glyph unicode="&#xeb;" horiz-adv-x="583" d="M290 -11Q217 -11 160 20T71 106T38 233Q38 292 60 344T120 437T210 501T318 524Q385 524 435 495T514 414T543 293Q543 270 542 252T537 217H191Q196 187 211 165T251 130T307 117Q336 117 361 126T404 155L491
57Q442 21 394 5T290 -11ZM201 308H403Q399 336 387 355T355 386T309 397Q285 397 264 386T227 355T201 308ZM489 602Q459 602 439 622T419 674Q419 712 446 739T509 766Q538 766 557 746T577 694Q577 657 551 630T489 602ZM715 602Q686 602 666 622T645 674Q645
711 672 738T735 766Q764 766 783 746T803 694Q803 657 777 630T715 602Z" />
<glyph unicode="&#xec;" horiz-adv-x="283" d="M6 0L118 516H277L165 0H6ZM166 601L-23 747H171L307 601H166Z" />
<glyph unicode="&#xed;" horiz-adv-x="283" d="M6 0L118 516H277L165 0H6ZM122 601L289 747H483L266 601H122Z" />
<glyph unicode="&#xee;" horiz-adv-x="283" d="M6 0L118 516H277L165 0H6ZM11 599L167 750H320L415 599H298L234 682L138 599H11Z" />
<glyph unicode="&#xef;" horiz-adv-x="283" d="M6 0L118 516H277L165 0H6ZM101 602Q71 602 51 622T31 674Q31 712 58 739T121 766Q150 766 169 746T189 694Q189 657 163 630T101 602ZM327 602Q298 602 278 622T257 674Q257 711 284 738T347 766Q376 766 395 746T415
694Q415 657 389 630T327 602Z" />
<glyph unicode="&#xf0;" horiz-adv-x="584" d="M274 -9Q206 -9 155 19T74 99T45 217Q45 288 76 344T161 433T282 466Q335 466 376 447T434 396Q432 440 419 481T380 560L291 514L258 595L323 629Q310 643 295 655T263 677L364 774Q389 756 411 737T452 695L548
745L583 663L504 623Q567 512 567 366Q567 285 545 217T484 98T391 19T274 -9ZM279 128Q309 128 334 144T375 188T391 248Q391 276 379 297T347 332T302 345Q271 345 245 329T203 285T187 226Q187 198 199 176T232 141T279 128Z" />
<glyph unicode="&#xf1;" horiz-adv-x="606" d="M6 0L118 516H277L260 436Q296 478 339 500T429 522Q481 522 515 499T563 434T564 337L492 0H333L397 297Q407 341 388 369T328 397Q305 397 284 388T243 358L165 0H6ZM513 594L431 625Q461 694 495 727T569 760Q594
760 616 749T657 724T694 699T725 688Q736 688 745 701T774 755L857 725Q827 657 794 624T723 590Q697 590 675 601T635 626T600 651T568 662Q554 662 542 647T513 594Z" />
<glyph unicode="&#xf2;" horiz-adv-x="610" d="M282 -10Q213 -10 158 21T72 107T40 231Q40 292 62 345T124 439T216 502T328 525Q398 525 452 494T538 409T570 284Q570 224 548 171T486 77T394 13T282 -10ZM291 127Q327 127 354 147T398 201T414 280Q414 331 388
360T318 390Q284 390 257 370T213 316T196 239Q196 187 222 157T291 127ZM556 601L367 747H561L697 601H556Z" />
<glyph unicode="&#xf3;" horiz-adv-x="610" d="M282 -10Q213 -10 158 21T72 107T40 231Q40 292 62 345T124 439T216 502T328 525Q398 525 452 494T538 409T570 284Q570 224 548 171T486 77T394 13T282 -10ZM291 127Q327 127 354 147T398 201T414 280Q414 331 388
360T318 390Q284 390 257 370T213 316T196 239Q196 187 222 157T291 127ZM512 601L679 747H873L656 601H512Z" />
<glyph unicode="&#xf4;" horiz-adv-x="610" d="M282 -10Q213 -10 158 21T72 107T40 231Q40 292 62 345T124 439T216 502T328 525Q398 525 452 494T538 409T570 284Q570 224 548 171T486 77T394 13T282 -10ZM291 127Q327 127 354 147T398 201T414 280Q414 331 388
360T318 390Q284 390 257 370T213 316T196 239Q196 187 222 157T291 127ZM401 599L557 750H710L805 599H688L624 682L528 599H401Z" />
<glyph unicode="&#xf5;" horiz-adv-x="610" d="M282 -10Q213 -10 158 21T72 107T40 231Q40 292 62 345T124 439T216 502T328 525Q398 525 452 494T538 409T570 284Q570 224 548 171T486 77T394 13T282 -10ZM291 127Q327 127 354 147T398 201T414 280Q414 331 388
360T318 390Q284 390 257 370T213 316T196 239Q196 187 222 157T291 127ZM488 594L406 625Q436 694 470 727T544 760Q569 760 591 749T632 724T669 699T700 688Q711 688 720 701T749 755L832 725Q802 657 769 624T698 590Q672 590 650 601T610 626T575 651T543
662Q529 662 517 647T488 594Z" />
<glyph unicode="&#xf6;" horiz-adv-x="610" d="M282 -10Q213 -10 158 21T72 107T40 231Q40 292 62 345T124 439T216 502T328 525Q398 525 452 494T538 409T570 284Q570 224 548 171T486 77T394 13T282 -10ZM291 127Q327 127 354 147T398 201T414 280Q414 331 388
360T318 390Q284 390 257 370T213 316T196 239Q196 187 222 157T291 127ZM491 602Q461 602 441 622T421 674Q421 712 448 739T511 766Q540 766 559 746T579 694Q579 657 553 630T491 602ZM717 602Q688 602 668 622T647 674Q647 711 674 738T737 766Q766 766 785
746T805 694Q805 657 779 630T717 602Z" />
<glyph unicode="&#xf7;" horiz-adv-x="600" d="M86 297L112 421H562L536 297H86ZM269 39Q232 39 208 64T183 126Q183 167 213 196T286 226Q321 226 345 202T369 139Q369 99 340 69T269 39ZM367 499Q330 499 306 524T281 586Q281 627 311 656T384 686Q419 686 443
662T467 599Q467 559 438 529T367 499Z" />
<glyph unicode="&#xf8;" horiz-adv-x="611" d="M282 -10Q239 -10 201 3T132 38L92 0H-17L80 94Q61 123 51 157T40 231Q40 292 62 345T124 439T216 502T328 525Q372 525 409 513T477 478L517 516H628L530 422Q550 394 560 359T570 284Q570 224 548 171T486 77T394
13T282 -10ZM199 208L371 375Q361 383 348 386T318 390Q284 390 257 370T213 316T196 239Q196 231 197 224T199 208ZM291 127Q327 127 354 147T398 201T414 280Q414 288 414 294T412 308L239 142Q262 127 291 127Z" />
<glyph unicode="&#xf9;" horiz-adv-x="606" d="M177 -6Q126 -6 92 18T44 84T42 179L114 516H273L209 219Q199 175 218 147T278 119Q301 119 322 128T363 158L441 516H600L488 0H329L346 80Q310 38 267 16T177 -6ZM565 601L376 747H570L706 601H565Z" />
<glyph unicode="&#xfa;" horiz-adv-x="606" d="M177 -6Q126 -6 92 18T44 84T42 179L114 516H273L209 219Q199 175 218 147T278 119Q301 119 322 128T363 158L441 516H600L488 0H329L346 80Q310 38 267 16T177 -6ZM521 601L688 747H882L665 601H521Z" />
<glyph unicode="&#xfb;" horiz-adv-x="606" d="M177 -6Q126 -6 92 18T44 84T42 179L114 516H273L209 219Q199 175 218 147T278 119Q301 119 322 128T363 158L441 516H600L488 0H329L346 80Q310 38 267 16T177 -6ZM410 599L566 750H719L814 599H697L633 682L537 599H410Z" />
<glyph unicode="&#xfc;" horiz-adv-x="606" d="M177 -6Q126 -6 92 18T44 84T42 179L114 516H273L209 219Q199 175 218 147T278 119Q301 119 322 128T363 158L441 516H600L488 0H329L346 80Q310 38 267 16T177 -6ZM500 602Q470 602 450 622T430 674Q430 712 457
739T520 766Q549 766 568 746T588 694Q588 657 562 630T500 602ZM726 602Q697 602 677 622T656 674Q656 711 683 738T746 766Q775 766 794 746T814 694Q814 657 788 630T726 602Z" />
<glyph unicode="&#xfd;" horiz-adv-x="572" d="M39 -219Q19 -219 -2 -216T-50 -206L-21 -71Q-8 -74 5 -75T28 -77Q63 -77 85 -67T120 -31L132 -9L58 516H222L255 169L451 516H624L271 -72Q226 -147 170 -183T39 -219ZM518 601L685 747H879L662 601H518Z" />
<glyph unicode="&#xfe;" horiz-adv-x="632" d="M-40 -209L158 712L321 737L262 461Q317 519 397 519Q452 519 495 488T565 403T591 283Q591 224 571 172T515 81T432 19T330 -3Q228 -3 181 81L119 -209H-40ZM327 386Q277 386 238 348L203 183Q220 159 247 145T305
131Q343 131 372 149T419 199T436 270Q436 321 405 353T327 386Z" />
<glyph unicode="&#xff;" horiz-adv-x="572" d="M39 -219Q19 -219 -2 -216T-50 -206L-21 -71Q-8 -74 5 -75T28 -77Q63 -77 85 -67T120 -31L132 -9L58 516H222L255 169L451 516H624L271 -72Q226 -147 170 -183T39 -219ZM497 602Q467 602 447 622T427 674Q427 712
454 739T517 766Q546 766 565 746T585 694Q585 657 559 630T497 602ZM723 602Q694 602 674 622T653 674Q653 711 680 738T743 766Q772 766 791 746T811 694Q811 657 785 630T723 602Z" />
<glyph unicode="&#x2013;" horiz-adv-x="553" d="M41 219L69 354H523L495 219H41Z" />
<glyph unicode="&#x2014;" horiz-adv-x="693" d="M41 219L69 354H662L634 219H41Z" />
<glyph unicode="&#x2018;" horiz-adv-x="250" d="M344 750L210 446H55L230 750H344Z" />
<glyph unicode="&#x2019;" horiz-adv-x="250" d="M66 446L200 750H355L180 446H66Z" />
<glyph unicode="&#x201a;" horiz-adv-x="250" d="M-98 -177L36 127H191L16 -177H-98Z" />
<glyph unicode="&#x201c;" horiz-adv-x="479" d="M344 750L210 446H55L230 750H344ZM573 750L439 446H284L459 750H573Z" />
<glyph unicode="&#x201d;" horiz-adv-x="479" d="M295 446L429 750H584L409 446H295ZM66 446L200 750H355L180 446H66Z" />
<glyph unicode="&#x201e;" horiz-adv-x="479" d="M131 -177L265 127H420L245 -177H131ZM-98 -177L36 127H191L16 -177H-98Z" />
<glyph unicode="&#x2022;" horiz-adv-x="370" d="M184 202Q141 202 112 232T82 308Q82 346 100 377T148 426T214 445Q258 445 286 415T314 338Q314 302 296 271T249 221T184 202Z" />
<glyph unicode="&#x2039;" horiz-adv-x="447" d="M201 0L28 258L313 516H468L188 257L354 0H201Z" />
<glyph unicode="&#x203a;" horiz-adv-x="456" d="M255 516L428 258L143 0H-12L268 259L102 516H255Z" />
</font>
</defs>
</svg>
